<svg width="278" height="278" viewBox="0 0 278 278" fill="none" xmlns="http://www.w3.org/2000/svg">
<path d="M138.472 270.244C210.821 270.244 269.471 236.382 269.471 194.611C269.471 152.84 210.821 118.978 138.472 118.978C66.123 118.978 7.47266 152.84 7.47266 194.611C7.47266 236.382 66.123 270.244 138.472 270.244Z" fill="#F0F0F0"/>
<path d="M213.704 220.854C205.114 215.895 205.114 207.855 213.704 202.896C222.294 197.936 236.222 197.936 244.812 202.896C253.403 207.855 253.403 215.895 244.812 220.854C236.222 225.814 222.294 225.814 213.704 220.854Z" fill="#E0E0E0"/>
<path d="M38.9867 221.544L16.3908 208.5C15.1176 207.766 15.1176 206.571 16.3908 205.837L147.824 129.954C148.538 129.592 149.328 129.403 150.128 129.403C150.929 129.403 151.719 129.592 152.433 129.954L175.034 142.998C176.308 143.732 176.308 144.927 175.034 145.661L43.6015 221.544C42.8862 221.906 42.0958 222.094 41.2941 222.094C40.4924 222.094 39.702 221.906 38.9867 221.544Z" fill="#E0E0E0"/>
<path d="M120.207 198.292L139.634 187.061C141.635 185.904 142.636 184.392 142.636 182.874C142.636 181.356 142.636 180.172 142.636 180.172L122.487 168.807C121.924 168.443 121.455 167.951 121.119 167.371C120.783 166.792 120.588 166.14 120.552 165.471V141.513L86.636 161.118V185.065C86.6751 185.733 86.8705 186.383 87.2065 186.963C87.5426 187.542 88.0099 188.035 88.5709 188.401L105.718 198.275C109.71 200.605 116.204 200.605 120.207 198.292Z" fill="#AFFCA7"/>
<g opacity="0.6">
<path d="M120.207 198.292L139.634 187.061C141.635 185.904 142.636 184.392 142.636 182.874C142.636 181.356 142.636 180.172 142.636 180.172L122.487 168.807C121.924 168.443 121.455 167.951 121.119 167.371C120.783 166.792 120.588 166.14 120.552 165.471V141.513L86.636 161.118V185.065C86.6751 185.733 86.8705 186.383 87.2065 186.963C87.5426 187.542 88.0099 188.035 88.5709 188.401L105.718 198.275C109.71 200.605 116.204 200.605 120.207 198.292Z" fill="black"/>
</g>
<path opacity="0.3" d="M94.7703 189.307V191.998L88.5542 188.412C87.9933 188.046 87.5264 187.554 87.1912 186.974C86.856 186.395 86.662 185.744 86.6249 185.076V161.118L93.0856 157.387C93.219 159.027 93.3636 160.723 93.5026 162.391L88.9601 165.004V183.714C88.9961 184.383 89.1902 185.034 89.5265 185.614C89.8629 186.194 90.3318 186.686 90.895 187.05L94.7703 189.307Z" fill="black"/>
<path d="M88.9601 183.719C88.9983 184.388 89.1933 185.038 89.5295 185.618C89.8656 186.197 90.3334 186.69 90.895 187.055L105.696 195.584C109.699 197.892 116.193 197.897 120.202 195.584L139.662 184.353C143.67 182.04 143.67 178.293 139.662 175.98L124.85 167.451C124.29 167.084 123.823 166.592 123.488 166.012C123.153 165.433 122.959 164.783 122.921 164.115V145.4L89.0046 165.004L88.9601 183.719Z" fill="#AFFCA7"/>
<path opacity="0.3" d="M88.9601 183.719C88.9983 184.388 89.1933 185.038 89.5295 185.618C89.8656 186.197 90.3334 186.69 90.895 187.055L105.696 195.584C109.699 197.892 116.193 197.897 120.202 195.584L139.662 184.353C143.67 182.04 143.67 178.293 139.662 175.98L124.85 167.451C124.29 167.084 123.823 166.592 123.488 166.012C123.153 165.433 122.959 164.783 122.921 164.115V145.4L89.0046 165.004L88.9601 183.719Z" fill="black"/>
<path opacity="0.5" d="M128.77 169.736L124.828 167.462C124.267 167.095 123.801 166.603 123.466 166.023C123.131 165.444 122.936 164.794 122.898 164.126V145.4L88.9823 165.004V183.719C89.0205 184.388 89.2156 185.038 89.5517 185.618C89.8878 186.197 90.3556 186.69 90.9172 187.055L94.8092 189.279L128.77 169.736Z" fill="black"/>
<path d="M142.642 180.177V182.88C142.642 184.397 141.635 185.904 139.639 187.066L120.179 198.292C118.05 199.429 115.671 200.019 113.257 200.01V197.319C115.671 197.328 118.05 196.738 120.179 195.601L139.639 184.364C141.635 183.213 142.642 181.695 142.642 180.177Z" fill="#AFFCA7"/>
<path opacity="0.5" d="M142.642 180.177V182.88C142.642 184.397 141.635 185.904 139.639 187.066L120.179 198.292C118.05 199.429 115.671 200.019 113.257 200.01V197.319C115.671 197.328 118.05 196.738 120.179 195.601L139.639 184.364C141.635 183.213 142.642 181.695 142.642 180.177Z" fill="black"/>
<path d="M34.472 206.977C35.2053 207.331 36.0114 207.508 36.8255 207.493C37.6396 207.479 38.439 207.273 39.1591 206.893L170.375 131.138C171.079 130.679 171.664 130.061 172.085 129.334C172.505 128.606 172.748 127.79 172.794 126.951V20.8C172.769 19.984 172.551 19.1854 172.159 18.4695C171.766 17.7535 171.211 17.1404 170.536 16.68C169.804 16.3255 168.998 16.1488 168.185 16.1642C167.371 16.1797 166.573 16.3869 165.855 16.769L34.6388 92.5462C33.9377 93.008 33.3557 93.629 32.9402 94.3585C32.5247 95.088 32.2875 95.9054 32.248 96.744V202.879C32.2728 203.688 32.4869 204.48 32.8732 205.192C33.2594 205.904 33.807 206.515 34.472 206.977Z" fill="#AFFCA7"/>
<path d="M39.1758 206.888L170.392 131.133C171.096 130.675 171.683 130.057 172.103 129.329C172.523 128.602 172.766 127.785 172.81 126.946V20.8C172.81 19.2598 171.726 18.6316 170.392 19.4044L39.1758 95.1594C38.4719 95.618 37.8861 96.2361 37.4658 96.9635C37.0456 97.6909 36.8028 98.5072 36.7572 99.3461V205.492C36.7572 207.032 37.8414 207.66 39.1758 206.888Z" fill="#AFFCA7"/>
<path opacity="0.5" d="M39.1758 206.888L170.392 131.133C171.096 130.675 171.683 130.057 172.103 129.329C172.523 128.602 172.766 127.785 172.81 126.946V20.8C172.81 19.2598 171.726 18.6316 170.392 19.4044L39.1758 95.1594C38.4719 95.618 37.8861 96.2361 37.4658 96.9635C37.0456 97.6909 36.8028 98.5072 36.7572 99.3461V205.492C36.7572 207.032 37.8414 207.66 39.1758 206.888Z" fill="black"/>
<path d="M38.82 209.645C38.1319 209.946 37.3869 210.093 36.6362 210.078C35.8856 210.063 35.1473 209.885 34.472 209.556C33.8055 209.093 33.257 208.481 32.8707 207.767C32.4844 207.053 32.2711 206.259 32.248 205.448V195.784L36.7794 198.409V208.072C36.7516 209.479 37.6468 210.118 38.82 209.645Z" fill="#AFFCA7"/>
<path opacity="0.5" d="M38.82 209.645C38.1319 209.946 37.3869 210.093 36.6362 210.078C35.8856 210.063 35.1473 209.885 34.472 209.556C33.8055 209.093 33.257 208.481 32.8707 207.767C32.4844 207.053 32.2711 206.259 32.248 205.448V195.784L36.7794 198.409V208.072C36.7516 209.479 37.6468 210.118 38.82 209.645Z" fill="black"/>
<path d="M36.7516 198.409V208.072C36.7516 209.612 37.8636 210.235 39.1702 209.467L170.386 133.712C171.087 133.256 171.671 132.641 172.091 131.918C172.511 131.195 172.755 130.383 172.805 129.548V119.84L36.7516 198.409Z" fill="#AFFCA7"/>
<path opacity="0.3" d="M36.7572 198.386V208.072C36.7572 209.612 37.8692 210.235 39.1758 209.467L170.392 133.712C171.091 133.255 171.674 132.64 172.093 131.917C172.512 131.194 172.756 130.382 172.805 129.548V119.84L36.7572 198.386Z" fill="black"/>
<path d="M41.2886 186.26V100.853C41.3145 100.35 41.4589 99.8597 41.7101 99.423C41.9613 98.9863 42.3122 98.6151 42.7342 98.3397L166.8 26.688C167.601 26.2265 168.251 26.599 168.251 27.522V112.974C168.224 113.477 168.079 113.967 167.827 114.404C167.574 114.841 167.223 115.212 166.8 115.487L42.7397 187.122C41.9391 187.583 41.2886 187.205 41.2886 186.26Z" fill="#AFFCA7"/>
<path d="M41.2886 186.26V100.853C41.3145 100.35 41.4589 99.8597 41.7101 99.423C41.9613 98.9863 42.3122 98.6151 42.7342 98.3397L166.8 26.688C167.601 26.2265 168.251 26.599 168.251 27.522V112.974C168.224 113.477 168.079 113.967 167.827 114.404C167.574 114.841 167.223 115.212 166.8 115.487L42.7397 187.122C41.9391 187.583 41.2886 187.205 41.2886 186.26Z" fill="#263238"/>
<path d="M104.778 162.202C104.118 162.631 103.568 163.211 103.174 163.893C102.78 164.575 102.552 165.341 102.51 166.127C102.51 167.573 103.527 168.162 104.778 167.439C105.439 167.009 105.99 166.429 106.384 165.746C106.778 165.063 107.005 164.296 107.047 163.508C107.047 162.063 106.029 161.479 104.778 162.202Z" fill="#AFFCA7"/>
<path opacity="0.7" d="M37.4689 96.9553C37.038 97.6796 36.7917 98.4987 36.7516 99.3405V198.409L32.248 195.784V96.744C32.2772 95.8994 32.5222 95.0763 32.9597 94.3532L37.4689 96.9553Z" fill="black"/>
<path opacity="0.3" d="M172.783 20.3996C172.61 19.1542 171.604 18.7316 170.386 19.4044L39.1703 95.1594C38.4588 95.6043 37.8716 96.2222 37.4633 96.9553L32.9264 94.3365C33.3374 93.6036 33.9263 92.986 34.6389 92.5406L165.855 16.7912C166.574 16.4091 167.373 16.2018 168.188 16.1864C169.002 16.1709 169.809 16.3477 170.542 16.7022C171.158 17.1222 171.677 17.6697 172.064 18.3075C172.451 18.9454 172.696 19.6589 172.783 20.3996Z" fill="black"/>
<path d="M179.86 33.4656C179.666 33.3678 179.448 33.325 179.23 33.3416C179.013 33.3583 178.804 33.4338 178.626 33.5602L54.8161 105.084C54.3275 105.407 53.922 105.841 53.6322 106.35C53.3424 106.859 53.1766 107.429 53.1481 108.014V192.899C53.1307 193.185 53.1876 193.471 53.3133 193.729C53.4389 193.988 53.6291 194.209 53.8653 194.372C54.1377 194.522 55.5945 195.367 56.0281 195.601C56.1816 195.679 56.353 195.715 56.5249 195.705C56.6969 195.695 56.8631 195.64 57.0067 195.545L180.789 124.021C181.278 123.698 181.683 123.265 181.973 122.755C182.263 122.246 182.429 121.676 182.457 121.091V35.7675C182.482 35.5519 182.446 35.3336 182.354 35.1372C182.261 34.9407 182.116 34.7739 181.934 34.6555C181.656 34.472 180.172 33.6491 179.86 33.4656Z" fill="#AFFCA7"/>
<path d="M56.9789 106.285L180.795 34.7889C181.729 34.2329 182.463 34.6888 182.463 35.7675V121.091C182.434 121.676 182.268 122.246 181.978 122.755C181.689 123.265 181.283 123.698 180.795 124.021L56.9789 195.545C56.0448 196.101 55.3109 195.206 55.3109 194.127V109.215C55.3403 108.63 55.5065 108.06 55.7962 107.552C56.0859 107.043 56.491 106.609 56.9789 106.285Z" fill="#FAFAFA"/>
<path d="M181.551 35.1114C181.879 35.1114 181.929 35.5228 181.929 35.7675V121.091C181.899 121.581 181.755 122.057 181.509 122.482C181.263 122.907 180.921 123.268 180.511 123.538L56.712 195.061C56.6289 195.115 56.533 195.146 56.434 195.15C56.1227 195.15 55.878 194.672 55.878 194.127V109.215C55.9049 108.725 56.0442 108.248 56.2853 107.821C56.5264 107.394 56.8626 107.028 57.268 106.752L181.073 35.2671C181.216 35.1747 181.381 35.121 181.551 35.1114ZM181.551 34.5554C181.283 34.5668 181.022 34.6472 180.795 34.7889L56.9789 106.285C56.491 106.609 56.0859 107.043 55.7962 107.552C55.5065 108.06 55.3403 108.63 55.3109 109.215V194.127C55.3109 194.984 55.7891 195.706 56.4229 195.706C56.6192 195.703 56.8111 195.647 56.9789 195.545L180.789 124.021C181.278 123.698 181.683 123.265 181.973 122.755C182.263 122.246 182.429 121.676 182.457 121.091V35.7675C182.457 35.0002 182.079 34.5554 181.523 34.5554H181.551Z" fill="#E0E0E0"/>
<path d="M53.8319 194.372C54.0154 194.467 55.3331 195.217 55.9113 195.551C55.7037 195.379 55.5392 195.16 55.4311 194.913C55.323 194.666 55.2742 194.397 55.2886 194.127V114.758L53.1202 113.491V192.899C53.1023 193.185 53.1583 193.471 53.283 193.729C53.4076 193.987 53.5967 194.208 53.8319 194.372Z" fill="#F0F0F0"/>
<path d="M182.485 35.7508C182.485 34.6833 181.723 34.2496 180.817 34.7889L56.9789 106.285C56.491 106.609 56.0859 107.043 55.7962 107.552C55.5065 108.06 55.3403 108.63 55.3109 109.215V114.775L182.485 41.3108V35.7508Z" fill="#AFFCA7"/>
<g opacity="0.4">
<path d="M180.795 34.7889L56.9789 106.279C56.482 106.593 56.0726 107.027 55.789 107.542L53.6373 106.291C53.9204 105.794 54.3263 105.379 54.816 105.084L178.626 33.5602C178.803 33.4329 179.012 33.3564 179.229 33.3388C179.447 33.3211 179.665 33.3631 179.86 33.4601C180.161 33.6491 181.567 34.4442 181.929 34.6388C181.742 34.5695 181.541 34.5469 181.343 34.5731C181.145 34.5992 180.957 34.6733 180.795 34.7889Z" fill="white"/>
</g>
<path opacity="0.15" d="M53.1202 113.496V107.986C53.1431 107.386 53.3212 106.802 53.6373 106.291L55.7946 107.536C55.483 108.038 55.3086 108.613 55.2886 109.204V114.764L53.1202 113.496Z" fill="black"/>
<path d="M156.375 99.7575L82.2212 142.57C81.8606 142.804 81.5603 143.119 81.3449 143.491C81.1294 143.863 81.0049 144.281 80.9813 144.71V165.972C81.0049 166.401 81.1294 166.818 81.3449 167.19C81.5603 167.562 81.8606 167.878 82.2212 168.112L84.384 169.358C84.7684 169.552 85.1932 169.653 85.6239 169.653C86.0547 169.653 86.4794 169.552 86.8638 169.358L161.006 126.546C161.367 126.31 161.667 125.994 161.883 125.621C162.098 125.248 162.223 124.829 162.246 124.399V103.132C162.223 102.703 162.098 102.286 161.883 101.914C161.667 101.542 161.367 101.226 161.006 100.992L158.838 99.7464C158.455 99.5551 158.033 99.4565 157.605 99.4584C157.177 99.4603 156.756 99.5628 156.375 99.7575Z" fill="#AFFCA7"/>
<path opacity="0.5" d="M162.246 102.943C162.157 102.304 161.64 102.07 161.018 102.432L86.8639 145.244C86.4982 145.471 86.1975 145.789 85.991 146.167L81.3484 143.487C81.5565 143.115 81.8547 142.801 82.2157 142.575L156.375 99.7631C156.758 99.5682 157.182 99.4667 157.612 99.4667C158.042 99.4667 158.466 99.5682 158.849 99.7631L161.018 101.009C161.348 101.225 161.629 101.51 161.841 101.843C162.053 102.177 162.191 102.552 162.246 102.943Z" fill="white"/>
<path d="M86.6525 169.463C86.2894 169.606 85.9003 169.671 85.5104 169.654C85.1205 169.637 84.7386 169.538 84.3896 169.363L82.2212 168.118C81.8612 167.883 81.5614 167.567 81.3461 167.195C81.1307 166.823 81.0057 166.406 80.9813 165.977V144.716C80.998 144.282 81.1243 143.859 81.3483 143.487L85.9909 146.167C85.7653 146.534 85.6388 146.954 85.6239 147.384V168.651C85.6239 169.358 86.0687 169.686 86.6525 169.463Z" fill="#263238"/>
<path d="M86.8639 145.244L161.018 102.432C161.701 102.037 162.257 102.354 162.257 103.144V124.411C162.234 124.841 162.109 125.259 161.894 125.632C161.679 126.005 161.378 126.322 161.018 126.557L86.875 169.369C86.1911 169.763 85.6351 169.441 85.6351 168.651V147.39C85.6575 146.961 85.7803 146.543 85.9937 146.171C86.2072 145.798 86.5052 145.48 86.8639 145.244Z" fill="#AFFCA7"/>
<path d="M136.715 111.111L82.2269 142.575C81.8658 142.801 81.5676 143.115 81.3595 143.487L86.0021 146.167C86.2086 145.789 86.5093 145.471 86.875 145.244L141.363 113.785L136.715 111.111Z" fill="#455A64"/>
<path d="M141.352 113.785L86.8639 145.244C86.5032 145.479 86.2029 145.796 85.9875 146.169C85.7721 146.542 85.6476 146.96 85.624 147.39V168.646C85.624 169.435 86.18 169.758 86.8639 169.363L141.352 137.905V113.785Z" fill="#37474F"/>
<path d="M99.4295 142.653L127.546 126.423C128.708 125.751 129.654 126.229 129.654 127.491C129.602 128.2 129.383 128.886 129.016 129.495C128.649 130.103 128.144 130.617 127.541 130.994L99.4295 147.229C98.2674 147.902 97.3167 147.423 97.3167 146.161C97.3691 145.452 97.5876 144.765 97.9547 144.155C98.3217 143.546 98.8269 143.031 99.4295 142.653Z" fill="#AFFCA7"/>
<path d="M105.19 148.029C105.195 148.024 105.201 148.019 105.208 148.016C105.216 148.012 105.223 148.011 105.231 148.011C105.239 148.011 105.247 148.012 105.254 148.016C105.261 148.019 105.268 148.024 105.273 148.029C105.298 148.067 105.31 148.112 105.306 148.157V151.321C105.307 151.627 105.281 151.932 105.228 152.233C105.183 152.508 105.104 152.777 104.995 153.033C104.895 153.269 104.764 153.489 104.606 153.69C104.449 153.875 104.261 154.031 104.05 154.151C103.884 154.259 103.691 154.317 103.494 154.318C103.418 154.312 103.345 154.29 103.278 154.255C103.211 154.22 103.152 154.171 103.105 154.112C102.983 153.949 102.902 153.758 102.871 153.556C102.818 153.287 102.794 153.013 102.799 152.739V149.57C102.799 149.514 102.81 149.459 102.832 149.408C102.846 149.362 102.875 149.323 102.916 149.297L103.266 149.091C103.277 149.081 103.292 149.075 103.308 149.075C103.323 149.075 103.338 149.081 103.349 149.091C103.375 149.129 103.387 149.174 103.383 149.219V152.344C103.378 152.516 103.395 152.688 103.433 152.856C103.448 152.963 103.494 153.063 103.566 153.145C103.591 153.174 103.623 153.198 103.658 153.213C103.694 153.229 103.733 153.236 103.772 153.234C103.867 153.227 103.959 153.197 104.039 153.145C104.138 153.086 104.227 153.013 104.306 152.928C104.392 152.828 104.464 152.715 104.517 152.594C104.58 152.452 104.626 152.302 104.656 152.149C104.688 151.966 104.703 151.78 104.7 151.593V148.463C104.702 148.407 104.715 148.352 104.739 148.302C104.753 148.256 104.782 148.217 104.823 148.191L105.19 148.029Z" fill="#FAFAFA"/>
<path d="M107.369 151.021C107.372 150.98 107.362 150.939 107.341 150.904C107.328 150.889 107.312 150.878 107.293 150.872C107.275 150.865 107.255 150.863 107.236 150.865C107.167 150.856 107.098 150.856 107.03 150.865L106.708 150.926C106.603 150.952 106.495 150.952 106.391 150.926C106.309 150.9 106.239 150.847 106.19 150.776C106.136 150.686 106.1 150.586 106.085 150.481C106.031 150.184 106.031 149.878 106.085 149.581C106.127 149.41 106.186 149.244 106.263 149.086C106.339 148.928 106.432 148.779 106.541 148.641C106.646 148.51 106.774 148.399 106.919 148.313C107.036 148.242 107.167 148.196 107.302 148.18C107.401 148.169 107.5 148.191 107.586 148.241C107.668 148.29 107.732 148.364 107.77 148.452C107.814 148.556 107.839 148.667 107.842 148.78C107.848 148.836 107.836 148.892 107.808 148.941C107.795 148.987 107.765 149.027 107.725 149.052L107.391 149.247C107.376 149.256 107.359 149.26 107.341 149.26C107.324 149.26 107.307 149.256 107.291 149.247L107.219 149.191C107.19 149.169 107.155 149.155 107.119 149.153C107.047 149.161 106.979 149.185 106.919 149.225C106.832 149.277 106.754 149.345 106.691 149.425C106.624 149.513 106.588 149.62 106.591 149.731C106.583 149.773 106.583 149.816 106.591 149.859C106.601 149.874 106.615 149.888 106.632 149.897C106.648 149.907 106.666 149.913 106.685 149.914C106.746 149.924 106.808 149.924 106.869 149.914L107.18 149.859C107.441 149.809 107.619 149.859 107.736 150.003C107.859 150.209 107.915 150.448 107.897 150.687C107.896 150.852 107.874 151.017 107.831 151.176C107.787 151.35 107.723 151.518 107.642 151.677C107.56 151.841 107.457 151.995 107.336 152.133C107.221 152.268 107.083 152.383 106.93 152.472C106.808 152.55 106.669 152.598 106.524 152.611C106.42 152.615 106.316 152.585 106.229 152.527C106.144 152.469 106.078 152.385 106.04 152.288C105.995 152.183 105.973 152.069 105.974 151.955C105.968 151.897 105.98 151.839 106.007 151.788C106.021 151.742 106.05 151.703 106.09 151.677L106.424 151.482C106.468 151.482 106.502 151.454 106.524 151.482L106.596 151.56C106.611 151.577 106.629 151.59 106.649 151.6C106.669 151.609 106.691 151.615 106.713 151.616C106.791 151.616 106.868 151.591 106.93 151.543C107.03 151.486 107.121 151.413 107.197 151.327C107.235 151.281 107.266 151.23 107.291 151.176C107.331 151.132 107.357 151.079 107.369 151.021Z" fill="#FAFAFA"/>
<path d="M108.503 149.514C108.502 149.225 108.527 148.937 108.576 148.652C108.622 148.384 108.695 148.122 108.792 147.868C108.874 147.641 108.986 147.426 109.126 147.229C109.243 147.059 109.394 146.917 109.571 146.812C109.7 146.725 109.857 146.691 110.01 146.717C110.146 146.749 110.265 146.83 110.344 146.945C110.448 147.096 110.522 147.266 110.561 147.446C110.614 147.679 110.64 147.918 110.638 148.157V148.502C110.64 148.56 110.627 148.618 110.599 148.669C110.586 148.715 110.556 148.754 110.516 148.78L109.07 149.62C109.067 149.717 109.08 149.815 109.109 149.909C109.131 149.972 109.169 150.027 109.221 150.07C109.266 150.106 109.324 150.124 109.382 150.12C109.449 150.112 109.514 150.089 109.571 150.053C109.655 150.008 109.73 149.947 109.793 149.875C109.85 149.811 109.899 149.74 109.938 149.664C109.962 149.62 109.988 149.577 110.016 149.536C110.04 149.508 110.068 149.484 110.099 149.464L110.444 149.264C110.456 149.254 110.47 149.249 110.485 149.249C110.501 149.249 110.515 149.254 110.527 149.264C110.542 149.281 110.552 149.302 110.558 149.324C110.564 149.346 110.565 149.369 110.561 149.392C110.554 149.5 110.532 149.607 110.494 149.709C110.446 149.863 110.383 150.012 110.305 150.153C110.218 150.316 110.113 150.469 109.993 150.609C109.874 150.753 109.731 150.875 109.571 150.971C109.439 151.057 109.282 151.094 109.126 151.076C108.989 151.043 108.87 150.96 108.792 150.843C108.683 150.674 108.609 150.485 108.576 150.287C108.525 150.032 108.501 149.773 108.503 149.514ZM109.571 147.74C109.485 147.786 109.411 147.851 109.354 147.929C109.292 148.007 109.242 148.093 109.204 148.185C109.165 148.277 109.133 148.372 109.109 148.469C109.09 148.557 109.077 148.646 109.07 148.736L110.049 148.18C110.043 148.103 110.032 148.027 110.016 147.952C110.007 147.884 109.98 147.821 109.938 147.768C109.921 147.744 109.9 147.724 109.875 147.708C109.85 147.693 109.822 147.683 109.793 147.679C109.714 147.672 109.635 147.694 109.571 147.74Z" fill="#FAFAFA"/>
<path d="M112.384 146.189C112.216 146.285 112.083 146.434 112.006 146.612C111.92 146.846 111.88 147.096 111.889 147.346V149.353C111.89 149.41 111.879 149.467 111.856 149.52C111.842 149.565 111.813 149.605 111.773 149.631L111.445 149.82C111.439 149.826 111.433 149.83 111.426 149.834C111.419 149.837 111.411 149.839 111.403 149.839C111.395 149.839 111.387 149.837 111.38 149.834C111.373 149.83 111.366 149.826 111.361 149.82C111.336 149.782 111.325 149.737 111.328 149.692V146.095C111.328 146.037 111.339 145.981 111.361 145.928C111.377 145.883 111.406 145.844 111.445 145.817L111.773 145.628C111.784 145.617 111.799 145.611 111.814 145.611C111.83 145.611 111.845 145.617 111.856 145.628C111.882 145.663 111.894 145.706 111.889 145.75V145.928C111.956 145.779 112.038 145.637 112.134 145.505C112.222 145.383 112.336 145.283 112.468 145.211L112.668 145.094C112.678 145.084 112.692 145.078 112.707 145.078C112.721 145.078 112.735 145.084 112.746 145.094C112.772 145.131 112.786 145.176 112.785 145.222V145.728C112.784 145.785 112.77 145.842 112.746 145.894C112.732 145.939 112.704 145.977 112.668 146.006L112.384 146.189Z" fill="#FAFAFA"/>
<path d="M116.532 145.922C116.537 145.916 116.544 145.912 116.551 145.908C116.558 145.905 116.566 145.903 116.574 145.903C116.582 145.903 116.589 145.905 116.597 145.908C116.604 145.912 116.61 145.916 116.615 145.922C116.64 145.96 116.652 146.005 116.649 146.05V146.606C116.648 146.663 116.637 146.72 116.615 146.773C116.596 146.814 116.568 146.85 116.532 146.879L114.63 147.991C114.619 148.001 114.604 148.007 114.589 148.007C114.573 148.007 114.558 148.001 114.547 147.991C114.522 147.955 114.51 147.912 114.514 147.868V142.864C114.514 142.807 114.525 142.75 114.547 142.697C114.563 142.654 114.592 142.617 114.63 142.592L114.981 142.386C114.992 142.375 115.007 142.37 115.022 142.37C115.038 142.37 115.053 142.375 115.064 142.386C115.089 142.422 115.101 142.465 115.098 142.508V146.74L116.532 145.922Z" fill="#FAFAFA"/>
<path d="M118.239 141.808C118.364 141.721 118.515 141.68 118.667 141.691C118.797 141.701 118.919 141.761 119.006 141.858C119.11 141.977 119.186 142.117 119.229 142.269C119.288 142.466 119.322 142.67 119.329 142.875C119.329 142.92 119.329 142.981 119.329 143.053V143.481C119.329 143.548 119.329 143.609 119.329 143.659C119.318 143.901 119.284 144.141 119.229 144.377C119.177 144.606 119.103 144.829 119.006 145.044C118.918 145.243 118.804 145.43 118.667 145.6C118.55 145.753 118.405 145.884 118.239 145.983C118.11 146.067 117.959 146.108 117.805 146.1C117.677 146.089 117.558 146.029 117.472 145.933C117.365 145.819 117.289 145.679 117.249 145.527C117.19 145.331 117.156 145.127 117.149 144.921C117.149 144.877 117.149 144.821 117.149 144.749V144.321C117.149 144.249 117.149 144.187 117.149 144.143C117.156 143.899 117.187 143.657 117.244 143.42C117.298 143.189 117.374 142.964 117.472 142.747C117.56 142.549 117.672 142.363 117.805 142.191C117.923 142.036 118.071 141.906 118.239 141.808ZM118.762 143.242C118.761 143.119 118.741 142.997 118.7 142.881C118.68 142.81 118.637 142.748 118.578 142.703C118.531 142.671 118.474 142.657 118.417 142.664C118.353 142.676 118.293 142.701 118.239 142.736C118.174 142.772 118.114 142.817 118.061 142.87C117.997 142.936 117.943 143.011 117.9 143.092C117.844 143.193 117.803 143.302 117.777 143.415C117.741 143.557 117.719 143.702 117.711 143.848C117.711 143.893 117.711 143.943 117.711 144.004V144.399C117.711 144.46 117.711 144.51 117.711 144.543C117.716 144.666 117.738 144.788 117.777 144.905C117.798 144.976 117.841 145.038 117.9 145.083C117.923 145.099 117.949 145.11 117.977 145.116C118.005 145.122 118.033 145.122 118.061 145.116C118.124 145.105 118.184 145.083 118.239 145.049C118.303 145.012 118.363 144.967 118.417 144.916C118.479 144.848 118.533 144.773 118.578 144.693C118.632 144.591 118.673 144.483 118.7 144.371C118.737 144.229 118.757 144.084 118.762 143.937C118.765 143.885 118.765 143.833 118.762 143.782V143.392C118.765 143.342 118.765 143.292 118.762 143.242Z" fill="#FAFAFA"/>
<path d="M121.03 145.06C121.101 145.017 121.165 144.963 121.219 144.899C121.286 144.821 121.344 144.735 121.391 144.643C121.447 144.532 121.49 144.414 121.519 144.293C121.553 144.157 121.57 144.017 121.569 143.876V143.593C121.569 143.648 121.514 143.715 121.475 143.793C121.437 143.874 121.392 143.952 121.341 144.026C121.283 144.104 121.22 144.179 121.152 144.249C121.083 144.322 121.002 144.384 120.913 144.432C120.856 144.471 120.792 144.498 120.724 144.511C120.656 144.525 120.586 144.524 120.518 144.51C120.395 144.471 120.289 144.391 120.218 144.282C120.128 144.138 120.062 143.98 120.024 143.815C119.976 143.605 119.95 143.391 119.946 143.176C119.946 143.103 119.946 143.014 119.946 142.909C119.946 142.803 119.946 142.714 119.946 142.636C119.953 142.392 119.979 142.148 120.024 141.908C120.069 141.671 120.134 141.439 120.218 141.213C120.297 141.017 120.398 140.83 120.518 140.657C120.621 140.504 120.756 140.375 120.913 140.279C120.987 140.234 121.068 140.202 121.152 140.184C121.215 140.173 121.279 140.173 121.341 140.184C121.391 140.198 121.436 140.223 121.475 140.257C121.51 140.284 121.542 140.316 121.569 140.351V140.173C121.57 140.116 121.581 140.059 121.603 140.006C121.618 139.963 121.648 139.926 121.686 139.901L122.014 139.706C122.025 139.696 122.04 139.69 122.056 139.69C122.071 139.69 122.086 139.696 122.098 139.706C122.124 139.743 122.138 139.788 122.136 139.834V143.448C122.151 143.989 122.051 144.528 121.842 145.027C121.678 145.42 121.393 145.751 121.03 145.972C120.906 146.049 120.764 146.093 120.619 146.1C120.503 146.107 120.389 146.078 120.291 146.017C120.197 145.946 120.12 145.855 120.068 145.75C120.014 145.623 119.984 145.487 119.979 145.35C119.974 145.292 119.986 145.234 120.013 145.183C120.026 145.137 120.056 145.097 120.096 145.072L120.391 144.905C120.397 144.897 120.406 144.892 120.415 144.888C120.424 144.884 120.434 144.882 120.443 144.882C120.453 144.882 120.463 144.884 120.472 144.888C120.481 144.892 120.489 144.897 120.496 144.905C120.524 144.934 120.548 144.965 120.569 144.999C120.602 145.059 120.658 145.103 120.724 145.122C120.791 145.172 120.891 145.116 121.03 145.06ZM120.507 142.364C120.507 142.512 120.507 142.657 120.507 142.797C120.491 143.02 120.554 143.24 120.685 143.42C120.735 143.463 120.798 143.486 120.863 143.486C120.929 143.486 120.992 143.463 121.041 143.42C121.202 143.315 121.328 143.164 121.403 142.987C121.504 142.755 121.56 142.506 121.569 142.253C121.569 142.169 121.569 142.069 121.569 141.952C121.569 141.836 121.569 141.736 121.569 141.663C121.581 141.464 121.522 141.267 121.403 141.107C121.353 141.062 121.289 141.037 121.222 141.037C121.155 141.037 121.09 141.062 121.041 141.107C120.883 141.212 120.759 141.361 120.685 141.535C120.571 141.797 120.511 142.079 120.507 142.364Z" fill="#FAFAFA"/>
<path d="M123.432 137.427C123.443 137.417 123.457 137.413 123.471 137.413C123.485 137.413 123.499 137.417 123.51 137.427C123.539 137.462 123.553 137.508 123.549 137.554V138.16C123.549 138.218 123.536 138.275 123.51 138.327C123.494 138.369 123.467 138.406 123.432 138.433L123.059 138.65C123.054 138.656 123.048 138.66 123.041 138.664C123.033 138.667 123.026 138.669 123.018 138.669C123.01 138.669 123.002 138.667 122.995 138.664C122.988 138.66 122.981 138.656 122.976 138.65C122.962 138.633 122.951 138.614 122.944 138.593C122.937 138.572 122.935 138.549 122.937 138.527V137.921C122.937 137.863 122.95 137.806 122.976 137.755C122.992 137.711 123.021 137.674 123.059 137.649L123.432 137.427ZM123.526 142.647C123.527 142.703 123.515 142.758 123.493 142.809C123.475 142.852 123.447 142.891 123.41 142.92L123.076 143.109C123.071 143.115 123.065 143.119 123.059 143.123C123.052 143.126 123.045 143.127 123.037 143.127C123.03 143.127 123.022 143.126 123.016 143.123C123.009 143.119 123.003 143.115 122.998 143.109C122.969 143.073 122.955 143.027 122.959 142.981V139.384C122.959 139.326 122.972 139.269 122.998 139.217C123.014 139.174 123.041 139.135 123.076 139.106L123.41 138.917C123.421 138.906 123.436 138.9 123.451 138.9C123.467 138.9 123.482 138.906 123.493 138.917C123.518 138.952 123.53 138.996 123.526 139.039V142.647Z" fill="#FAFAFA"/>
<path d="M126.451 140.952C126.451 141.009 126.439 141.065 126.418 141.118C126.402 141.162 126.373 141.199 126.334 141.224L126.001 141.419C125.99 141.429 125.976 141.434 125.962 141.434C125.947 141.434 125.933 141.429 125.923 141.419C125.894 141.383 125.88 141.337 125.884 141.291V139.334C125.901 139.103 125.859 138.871 125.762 138.661C125.684 138.522 125.561 138.5 125.389 138.6C125.217 138.715 125.09 138.886 125.028 139.083C124.935 139.346 124.89 139.623 124.894 139.901V141.863C124.894 141.921 124.883 141.977 124.861 142.03C124.847 142.076 124.818 142.115 124.777 142.141L124.449 142.33C124.444 142.336 124.438 142.341 124.431 142.344C124.423 142.348 124.416 142.349 124.408 142.349C124.4 142.349 124.392 142.348 124.385 142.344C124.378 142.341 124.371 142.336 124.366 142.33C124.34 142.295 124.328 142.252 124.333 142.208V138.611C124.332 138.553 124.343 138.497 124.366 138.444C124.38 138.398 124.409 138.359 124.449 138.333L124.777 138.144C124.783 138.138 124.789 138.133 124.796 138.13C124.803 138.127 124.811 138.125 124.819 138.125C124.827 138.125 124.835 138.127 124.842 138.13C124.849 138.133 124.856 138.138 124.861 138.144C124.886 138.182 124.897 138.227 124.894 138.272V138.444C124.967 138.275 125.057 138.113 125.161 137.96C125.253 137.82 125.377 137.704 125.522 137.621C125.649 137.529 125.806 137.489 125.962 137.51C126.023 137.525 126.081 137.554 126.131 137.593C126.18 137.632 126.221 137.682 126.251 137.738C126.332 137.888 126.384 138.052 126.407 138.222C126.436 138.443 126.451 138.666 126.451 138.889V140.952Z" fill="#FAFAFA"/>
<path d="M154.496 124.766L149.097 127.88L149.936 120.307C149.286 119.963 148.875 119.123 148.875 117.916C148.875 115.765 150.187 113.268 151.799 112.356C153.411 111.445 154.718 112.412 154.718 114.58C154.685 115.856 154.321 117.102 153.662 118.194L154.496 124.766Z" fill="#455A64"/>
<path d="M154.501 124.766L149.747 122.025L149.097 127.886L154.501 124.766Z" fill="#37474F"/>
<path d="M151.788 112.34C150.612 113.134 149.736 114.298 149.297 115.648L153.651 118.161C154.31 117.068 154.674 115.823 154.707 114.547C154.718 112.395 153.412 111.411 151.788 112.34Z" fill="#37474F"/>
<path d="M125.545 87.1252C123.693 86.0577 121.141 86.2078 118.317 87.8369C112.679 91.095 108.109 99.0069 108.109 105.518C108.109 108.787 109.265 111.078 111.122 112.134L114.719 114.225C116.565 115.292 119.117 115.136 121.947 113.507C127.585 110.255 132.156 102.337 132.156 95.8266C132.156 92.574 131.01 90.2666 129.164 89.2269" fill="#AFFCA7"/>
<path d="M121.942 89.933C116.304 93.1912 111.734 101.109 111.734 107.614C111.734 114.119 116.304 116.766 121.942 113.507C127.58 110.249 132.156 102.337 132.15 95.8266C132.145 89.3159 127.574 86.6804 121.942 89.933Z" fill="#AFFCA7"/>
<path d="M127.574 104.378V105.123C126.224 107.534 124.286 109.565 121.942 111.028C119.746 112.29 117.761 112.429 116.304 111.623V110.088C116.379 108.491 116.835 106.936 117.634 105.552C118.433 104.167 119.551 102.995 120.897 102.132L122.381 101.275C123.693 100.519 124.972 100.419 125.973 101.003C126.974 101.587 127.574 102.816 127.574 104.378Z" fill="#AFFCA7"/>
<path opacity="0.4" d="M125.545 87.1252L129.159 89.2269C127.313 88.1538 124.761 88.3039 121.931 89.933C118.239 92.068 115.003 96.1991 113.213 100.625L109.593 98.5288C111.389 94.0808 114.597 89.9719 118.311 87.8369C121.147 86.2134 123.699 86.0577 125.545 87.1252Z" fill="white"/>
<path opacity="0.2" d="M114.592 114.141L111.128 112.134C109.271 111.078 108.114 108.798 108.114 105.518L111.734 107.619C111.756 110.789 112.823 113.046 114.592 114.141Z" fill="black"/>
<path opacity="0.1" d="M109.604 98.5288L113.224 100.625C112.296 102.841 111.798 105.212 111.756 107.614L108.136 105.512C108.181 103.113 108.679 100.743 109.604 98.5288Z" fill="black"/>
<path d="M120.652 100.925C120.307 100.929 119.967 100.841 119.668 100.669C119.307 100.429 119.018 100.095 118.831 99.7036C118.644 99.3121 118.566 98.8774 118.606 98.4454C118.653 97.4324 118.942 96.4454 119.449 95.5671C119.956 94.6887 120.666 93.9446 121.519 93.3969C121.862 93.1232 122.28 92.9593 122.717 92.9267C123.155 92.8941 123.592 92.9943 123.971 93.2141C124.351 93.434 124.655 93.7633 124.845 94.1589C125.034 94.5546 125.1 94.9983 125.033 95.4318C124.985 96.4446 124.696 97.4313 124.189 98.3095C123.682 99.1876 122.973 99.932 122.12 100.48C121.678 100.756 121.172 100.909 120.652 100.925Z" fill="white"/>
<path d="M125.973 100.997C124.972 100.414 123.693 100.514 122.381 101.27L120.897 102.126C119.551 102.99 118.431 104.163 117.632 105.549C116.833 106.934 116.378 108.49 116.304 110.088V111.628C117.761 112.434 119.746 112.295 121.942 111.033C124.286 109.57 126.224 107.539 127.574 105.128V104.383C127.574 102.816 126.996 101.587 125.973 100.997Z" fill="white"/>
<path d="M209.679 44.48L211.447 45.1583V41.2663C211.447 38.175 213.91 37.4355 216.584 38.9812C219.264 40.5268 221.433 44.2798 221.433 47.3712V47.9272C221.805 47.8133 222.199 47.7852 222.584 47.8449C222.969 47.9046 223.336 48.0506 223.657 48.2719C224.672 48.9341 225.517 49.8265 226.123 50.8766C226.728 51.9268 227.078 53.105 227.143 54.3156V54.5714L229.611 55.9948C230.279 56.4307 230.835 57.0178 231.234 57.7084C231.633 58.399 231.864 59.1738 231.908 59.9702C231.908 61.438 230.879 62.0329 229.611 61.299L209.679 49.7842C209.01 49.3493 208.454 48.7624 208.056 48.0715C207.658 47.3805 207.429 46.6052 207.388 45.8088C207.388 44.3466 208.405 43.7516 209.679 44.48Z" fill="#E6E6E6"/>
<path d="M233.359 41.3998L236.567 43.2512C236.549 43.1111 236.54 42.97 236.539 42.8287V41.9002C236.539 40.2322 237.696 39.5761 239.13 40.4045C239.746 40.7819 240.274 41.2884 240.676 41.889C240.909 39.8096 242.544 39.0368 244.523 40.1766C245.654 40.9125 246.596 41.9047 247.272 43.0726C247.949 44.2404 248.34 45.5512 248.415 46.8986V48.2886C248.43 48.844 248.317 49.3954 248.087 49.901L250.756 51.4356C251.172 51.7114 251.517 52.0809 251.765 52.5145C252.012 52.9481 252.154 53.4336 252.179 53.932C252.179 54.8494 251.534 55.2219 250.739 54.766L233.359 44.758C232.938 44.4841 232.589 44.1146 232.338 43.6798C232.088 43.245 231.944 42.7571 231.919 42.256C231.919 41.3164 232.564 40.9438 233.359 41.3998Z" fill="#E6E6E6"/>
<path d="M220.938 125.784C218.603 129.731 216.356 133.162 214.777 134.808C211.781 136.198 204.742 138.344 201.989 138.7C201.506 138.761 201.016 138.647 200.61 138.377C199.526 137.666 198.687 137.549 197.547 137.154C196.652 136.848 196.274 136.42 196.107 136.598C195.935 136.8 195.848 137.061 195.866 137.326C195.883 137.591 196.004 137.839 196.201 138.016C196.629 138.422 197.103 138.777 197.614 139.072C196.393 139.375 195.119 139.398 193.888 139.139C191.503 138.511 190.38 139.656 191.992 142.247C192.548 143.17 194.839 144.655 199.443 144.254C201.085 144.166 202.721 143.98 204.341 143.698C208.756 142.753 213.665 141.841 216.684 140.918C217.807 140.477 218.813 139.78 219.62 138.883C224.696 133.095 226.381 128.97 228.605 125.222L228.416 119.106C224.813 118.984 222.889 122.481 220.938 125.784Z" fill="#FFA8A7"/>
<path d="M229.033 118.984C227.988 118.837 226.923 118.979 225.953 119.393C224.983 119.808 224.145 120.479 223.529 121.336C221.06 124.5 216.69 132.094 216.69 132.094C216.69 132.094 218.119 135.903 221.977 136.542L228.177 128.169C228.177 128.169 231.113 122.353 229.033 118.984Z" fill="#455A64"/>
<path d="M242.438 204.352H238.396V211.558H242.438V204.352Z" fill="#FFA8A7"/>
<path d="M228.427 203.969L224.391 204.113L224.185 196.485L228.427 196.34V203.969Z" fill="#FFA8A7"/>
<path d="M243.005 141.975C243.005 145.989 242.416 178.331 242.416 178.331C242.505 179.488 243.528 181.623 243.322 186.065C243.017 192.098 242.611 207.955 242.611 207.955C241.917 208.31 241.151 208.503 240.372 208.518C239.593 208.534 238.82 208.371 238.113 208.044C238.113 208.044 234.832 185.804 234.109 179.849C233.476 174.628 231.852 157.348 231.852 157.348L229.667 177.775C230.13 179.967 230.299 182.211 230.167 184.447C229.978 187.227 228.677 201.617 228.677 201.617C227.979 202.029 227.196 202.276 226.388 202.341C225.58 202.405 224.767 202.285 224.012 201.989C224.012 201.989 221.711 180.305 221.666 177.759C221.611 174.868 223.012 141.941 223.012 141.941L243.005 141.975Z" fill="#37474F"/>
<path d="M238.396 209.479V208.878C238.007 209.05 237.112 212.62 235.505 214.143C234.232 215.355 232.497 216.751 232.052 218.102C231.607 219.453 234.471 220.282 235.666 220.065C237.045 219.809 239.447 218.792 240.048 217.841C240.648 216.89 240.932 215.511 241.421 214.822C241.91 214.132 243.039 213.365 243.3 212.564C243.382 211.815 243.304 211.057 243.072 210.34C242.883 209.595 242.683 208.778 242.438 208.85V209.306C241.868 209.774 241.152 210.026 240.414 210.018C239.825 210.068 238.391 209.946 238.396 209.479Z" fill="#263238"/>
<path d="M224.346 202.812C224.135 202.812 223.962 203.129 223.501 203.652C222.815 204.373 222.012 204.975 221.127 205.431C219.615 206.22 216.679 207.432 215.339 208.061C214.505 208.45 214.544 209.495 215.406 210.09C216.267 210.685 218.341 211.113 220.832 210.535C222.189 210.218 223.957 208.911 225.08 208.984C226.203 209.056 228.288 209.034 229.117 208.428C229.945 207.822 229.611 206.565 229.378 205.481C229.122 204.291 228.822 202.44 228.427 202.523V202.94C227.943 203.707 225.436 204.019 224.368 203.457L224.346 202.812Z" fill="#263238"/>
<path d="M231.852 157.348C229.749 156.66 227.827 155.51 226.225 153.984C226.225 153.984 227.337 156.103 230.54 158.076L229.85 176.319L231.852 157.348Z" fill="#263238"/>
<path d="M240.748 119.573C240.748 119.573 244.084 120.341 243.845 126.368L243.15 135.959V150.359C240.181 153.728 227.026 153.484 222.495 150.092C222.495 150.092 223.006 133.051 223.312 126.49C223.529 121.831 224.602 119.484 229.183 118.973L234.816 119.218L240.748 119.573Z" fill="#AFFCA7"/>
<path d="M236.5 107.052C236.519 107.859 236.379 108.662 236.086 109.414C235.794 110.166 235.355 110.853 234.796 111.435C234.237 112.017 233.568 112.483 232.828 112.805C232.088 113.127 231.291 113.3 230.484 113.313C227.148 113.313 225.191 110.433 224.468 107.052C223.134 100.864 227.159 100.786 230.484 100.786C232.113 100.82 233.661 101.499 234.79 102.674C235.918 103.849 236.533 105.424 236.5 107.052Z" fill="#263238"/>
<path d="M239.569 109.582C239.569 109.582 238.646 114.097 238.274 114.842C238.04 115.29 237.641 115.631 237.162 115.793L237.229 112.618L239.569 109.582Z" fill="#263238"/>
<path d="M238.407 103.116C238.407 103.116 239.069 102.949 239.775 104.05C240.376 104.989 240.515 107.102 239.569 109.61L237.829 109.821L238.407 103.116Z" fill="#263238"/>
<path d="M239.047 104.033L241.182 104.072C241.196 103.934 241.182 103.795 241.14 103.662C241.099 103.53 241.03 103.408 240.938 103.303C240.847 103.199 240.735 103.115 240.609 103.055C240.484 102.996 240.347 102.964 240.209 102.96C239.917 102.964 239.637 103.076 239.422 103.274C239.208 103.472 239.074 103.743 239.047 104.033Z" fill="#263238"/>
<path d="M239.308 103.527L240.887 102.009C240.796 101.902 240.684 101.815 240.557 101.753C240.431 101.691 240.293 101.657 240.153 101.651C240.012 101.645 239.872 101.669 239.741 101.72C239.61 101.771 239.491 101.849 239.391 101.948C239.182 102.153 239.057 102.429 239.042 102.721C239.026 103.014 239.121 103.302 239.308 103.527Z" fill="#263238"/>
<path d="M237.306 109.793C237.657 110.01 238.151 109.315 238.585 108.843C239.019 108.37 240.364 107.936 241.065 109.471C241.766 111.005 240.57 112.523 239.569 113.024C237.773 113.913 237.206 112.618 237.206 112.618L237.056 119.768C234.532 123.66 228.805 123.538 230.868 119.579V117.405C230.019 117.546 229.158 117.591 228.299 117.538C226.898 117.316 226.02 116.165 225.591 114.586C224.913 112.051 224.652 110.005 225.23 105.017C225.864 99.5574 231.969 99.4962 235.238 101.681C238.507 103.866 237.306 109.793 237.306 109.793Z" fill="#FFA8A7"/>
<path d="M229.7 104.167C231.157 104.022 232.597 103.722 234.059 103.611C234.375 103.572 234.694 103.587 235.005 103.655C236.117 103.961 235.983 105.262 236.161 106.168C236.467 107.736 236.717 110.388 237.306 110.399C237.484 110.399 238.152 109.248 238.585 108.837C238.824 108.483 238.958 108.069 238.974 107.642C239.086 106.997 239.141 106.335 239.191 105.679C239.236 105.123 239.291 104.567 239.291 104.011C239.317 103.383 239.266 102.753 239.141 102.137C239.002 101.613 238.734 101.131 238.363 100.736L238.252 100.614C237.519 99.8476 236.629 99.2483 235.644 98.8568C234.226 98.3257 232.739 98.0017 231.229 97.8949C229.721 97.7881 228.22 97.6025 226.731 97.3389C226.646 97.3141 226.555 97.3141 226.47 97.3389C226.41 97.3724 226.359 97.4204 226.322 97.4787C226.285 97.537 226.263 97.6037 226.259 97.6725C226.198 98.018 226.236 98.3737 226.369 98.6985C226.502 99.0232 226.724 99.3036 227.009 99.5073C226.003 99.5852 224.846 99.0625 223.879 98.7956C223.801 98.7625 223.717 98.7454 223.632 98.7454C223.547 98.7454 223.462 98.7625 223.384 98.7956C223.287 98.8635 223.218 98.9643 223.19 99.0792C223.119 99.3404 223.11 99.6144 223.162 99.8798C223.25 100.685 223.549 101.452 224.029 102.104C224.779 103.079 225.837 103.772 227.032 104.067C227.911 104.236 228.811 104.27 229.7 104.167Z" fill="#263238"/>
<path d="M230.874 117.405C230.874 117.405 233.998 116.749 235.088 116.143C235.737 115.788 236.264 115.245 236.6 114.586C236.436 115.248 236.143 115.872 235.739 116.421C234.943 117.488 230.874 118.267 230.874 118.267V117.405Z" fill="#F28F8F"/>
<path d="M231.624 108.976C231.618 109.148 231.68 109.315 231.797 109.441C231.913 109.567 232.075 109.642 232.247 109.649C232.383 109.66 232.519 109.63 232.638 109.562C232.757 109.494 232.852 109.393 232.912 109.27C232.972 109.147 232.993 109.009 232.973 108.873C232.953 108.738 232.893 108.612 232.8 108.512C232.707 108.412 232.586 108.342 232.453 108.311C232.32 108.281 232.181 108.292 232.053 108.342C231.926 108.392 231.817 108.479 231.741 108.592C231.664 108.706 231.623 108.839 231.624 108.976Z" fill="#263238"/>
<path d="M232.625 106.279L233.965 107.052C234.062 106.862 234.084 106.641 234.027 106.435C233.969 106.229 233.836 106.052 233.653 105.94C233.565 105.89 233.466 105.86 233.365 105.85C233.264 105.84 233.161 105.851 233.064 105.883C232.968 105.915 232.879 105.967 232.803 106.035C232.727 106.103 232.667 106.186 232.625 106.279Z" fill="#263238"/>
<path d="M231.151 113.485L229.723 114.041C229.751 114.139 229.8 114.23 229.865 114.309C229.931 114.387 230.012 114.451 230.103 114.497C230.194 114.543 230.294 114.57 230.396 114.575C230.498 114.581 230.6 114.566 230.696 114.53C230.89 114.447 231.045 114.292 231.13 114.098C231.215 113.904 231.222 113.685 231.151 113.485Z" fill="#F28F8F"/>
<path d="M225.875 106.852L227.098 105.874C227.043 105.788 226.971 105.715 226.886 105.66C226.802 105.604 226.706 105.567 226.606 105.55C226.506 105.534 226.403 105.539 226.305 105.565C226.207 105.591 226.115 105.637 226.036 105.701C225.873 105.84 225.766 106.034 225.736 106.246C225.707 106.458 225.756 106.674 225.875 106.852Z" fill="#263238"/>
<path d="M226.414 108.793C226.424 108.914 226.469 109.03 226.544 109.127C226.618 109.223 226.72 109.296 226.835 109.336C226.95 109.376 227.075 109.382 227.193 109.352C227.311 109.322 227.419 109.259 227.502 109.169C227.585 109.08 227.64 108.968 227.66 108.848C227.681 108.727 227.666 108.604 227.617 108.492C227.568 108.38 227.488 108.285 227.386 108.218C227.284 108.151 227.165 108.115 227.043 108.114C226.957 108.117 226.872 108.137 226.794 108.173C226.716 108.208 226.646 108.259 226.587 108.322C226.529 108.385 226.483 108.459 226.454 108.54C226.424 108.621 226.411 108.707 226.414 108.793Z" fill="#263238"/>
<path d="M229.767 108.27L229.695 112.223L227.448 111.712L229.767 108.27Z" fill="#F28F8F"/>
<path d="M176.424 141.38L179.911 139.367L181.289 137.693L177.809 139.706L176.424 141.38Z" fill="#AFFCA7"/>
<path opacity="0.4" d="M176.424 141.38L179.911 139.367L181.289 137.693L177.809 139.706L176.424 141.38Z" fill="black"/>
<path d="M185.904 146.851L189.39 144.838L192.298 142.264L188.818 144.271L185.904 146.851Z" fill="#AFFCA7"/>
<path opacity="0.4" d="M185.904 146.851L189.39 144.838L192.298 142.264L188.818 144.271L185.904 146.851Z" fill="black"/>
<path d="M215.517 153.795C216.341 154.9 216.84 156.214 216.957 157.587C216.136 156.48 215.638 155.168 215.517 153.795ZM223.618 153.901C222.445 145.922 218.158 138.033 213.054 135.08C210.602 133.662 208.333 133.612 206.515 134.674L203.235 136.565L203.051 136.676C202.905 136.756 202.764 136.845 202.629 136.943C202.359 137.128 202.106 137.337 201.873 137.566L201.761 137.671C201.661 137.771 201.556 137.888 201.461 137.999C201.367 138.11 201.222 138.283 201.111 138.433C200.875 138.744 200.661 139.071 200.471 139.411C200.371 139.584 200.277 139.767 200.188 139.967L171.537 123.432L168.057 125.439V127.663L168.351 127.83L168.629 127.991V128.436L168.073 128.764V130.054L172.282 138.95L176.441 141.357L177.826 139.689L181.495 141.886L183.602 145.494L185.926 146.834L188.834 144.254L192.404 146.317L193.605 151.271L199.604 154.74C199.901 156.001 200.272 157.243 200.716 158.46C200.755 158.582 200.805 158.71 200.855 158.849C202.846 164.076 206.009 168.551 209.579 170.614C210.007 170.868 210.455 171.085 210.919 171.265C211.164 171.362 211.415 171.446 211.669 171.515C211.892 171.574 212.114 171.624 212.336 171.665C213.039 171.793 213.758 171.793 214.46 171.665L214.75 171.593C214.888 171.565 215.023 171.526 215.155 171.476L215.467 171.354C215.577 171.314 215.683 171.264 215.784 171.204C215.886 171.159 215.987 171.109 216.084 171.053L216.228 170.964C216.255 170.956 216.279 170.943 216.301 170.926C217.096 170.47 219.053 169.335 219.587 169.035C222.233 167.501 223.946 163.62 223.946 158.132C223.941 156.715 223.832 155.301 223.618 153.901Z" fill="#AFFCA7"/>
<path d="M214.499 160.528C213.12 159.733 212.008 157.376 212.008 155.263C212.008 153.15 213.12 152.077 214.499 152.867C215.878 153.656 216.985 156.019 216.985 158.138C216.985 160.256 215.873 161.323 214.499 160.528ZM220.132 155.908C218.964 147.935 214.677 140.04 209.568 137.093C207.199 135.725 205.008 135.625 203.229 136.565L203.046 136.676C202.9 136.756 202.758 136.845 202.623 136.943C202.354 137.128 202.101 137.337 201.867 137.566L201.756 137.671C201.656 137.771 201.55 137.888 201.455 137.999C201.361 138.11 201.216 138.283 201.105 138.433C200.869 138.744 200.656 139.071 200.466 139.411C200.366 139.584 200.271 139.767 200.182 139.967C199.664 141.042 199.29 142.181 199.07 143.353L168.051 125.439V127.663L168.346 127.83L168.624 127.991V128.436L168.068 128.764V130.054L172.277 138.95L176.435 141.357L177.82 139.689L181.49 141.886L183.597 145.494L185.921 146.834L188.829 144.254L192.398 146.317L193.599 151.271L199.604 154.74C199.901 156.001 200.272 157.243 200.716 158.46C200.755 158.582 200.805 158.71 200.855 158.849C202.846 164.076 206.009 168.551 209.579 170.614C210.006 170.868 210.455 171.085 210.919 171.265C211.164 171.362 211.415 171.446 211.669 171.515C211.892 171.574 212.114 171.624 212.336 171.665C213.039 171.793 213.758 171.793 214.46 171.665L214.749 171.593C214.888 171.565 215.023 171.526 215.155 171.476L215.467 171.354C215.577 171.314 215.683 171.264 215.784 171.204C215.886 171.159 215.987 171.109 216.084 171.053L216.228 170.964C216.255 170.956 216.279 170.943 216.301 170.926C218.836 169.324 220.465 165.499 220.465 160.145C220.456 158.726 220.344 157.31 220.132 155.908Z" fill="#AFFCA7"/>
<path opacity="0.4" d="M216.985 158.132C216.985 160.25 215.873 161.323 214.499 160.528C213.126 159.733 212.008 157.381 212.008 155.263C212.008 153.145 213.12 152.072 214.499 152.867C214.896 153.108 215.242 153.426 215.517 153.801C215.636 155.174 216.135 156.486 216.957 157.593C216.977 157.772 216.986 157.952 216.985 158.132Z" fill="black"/>
<path opacity="0.4" d="M223.935 158.126C223.935 163.614 222.222 167.495 219.576 169.03C219.02 169.33 217.085 170.464 216.29 170.92C218.825 169.319 220.454 165.493 220.454 160.139C220.448 158.723 220.34 157.309 220.132 155.908C218.964 147.935 214.677 140.04 209.568 137.093C207.199 135.725 205.008 135.625 203.229 136.565L206.51 134.674C208.328 133.612 210.596 133.662 213.048 135.08C218.158 138.033 222.444 145.922 223.612 153.901C223.824 155.299 223.932 156.712 223.935 158.126Z" fill="white"/>
<path d="M220.454 160.128C220.454 165.482 218.825 169.308 216.29 170.909C217.085 170.453 219.042 169.319 219.576 169.018C222.222 167.484 223.935 163.603 223.935 158.115C223.935 157.915 223.935 157.709 223.935 157.504L220.454 159.516C220.449 159.733 220.454 159.933 220.454 160.128Z" fill="#AFFCA7"/>
<path opacity="0.1" d="M220.454 160.128C220.454 165.482 218.825 169.308 216.29 170.909C217.085 170.453 219.042 169.319 219.576 169.018C222.222 167.484 223.935 163.603 223.935 158.115C223.935 157.915 223.935 157.709 223.935 157.504L220.454 159.516C220.449 159.733 220.454 159.933 220.454 160.128Z" fill="black"/>
<path opacity="0.15" d="M199.204 145.628V146.756L168.057 128.775L168.629 128.442V127.975L199.204 145.628Z" fill="black"/>
<path opacity="0.15" d="M199.204 146.095V146.756L168.057 128.775L168.629 128.442V128.436L199.204 146.095Z" fill="black"/>
<path opacity="0.15" d="M212.748 169.024C211.567 168.993 210.416 168.65 209.412 168.029C204.336 165.099 200.205 156.381 200.205 148.597C200.205 144.054 201.578 140.662 203.974 139.278C205.642 138.311 207.616 138.433 209.69 139.628C214.761 142.558 218.892 151.304 218.892 159.088C218.892 163.625 217.518 167.022 215.122 168.401C214.399 168.814 213.58 169.029 212.748 169.024ZM206.382 139.195C205.641 139.19 204.912 139.382 204.269 139.751C202.084 141.013 200.777 144.321 200.777 148.591C200.777 156.197 204.78 164.715 209.707 167.539C211.591 168.651 213.376 168.752 214.861 167.895C217.046 166.633 218.352 163.331 218.352 159.06C218.352 151.449 214.349 142.937 209.429 140.106C208.509 139.547 207.458 139.24 206.382 139.217V139.195Z" fill="black"/>
<path opacity="0.4" d="M200.16 139.956C199.642 141.031 199.268 142.17 199.048 143.342L168.029 125.428L171.509 123.421L200.16 139.956Z" fill="white"/>
<path d="M240.476 141.697C242.099 138.622 243.956 131.716 244.879 128.23C246.191 123.282 244.067 120.168 241.654 120.04C240.148 120.274 235.182 138.327 235.182 138.327C234.626 138.766 227.082 142.597 224.657 143.559C224.224 143.723 223.745 143.723 223.312 143.559C222.15 143.137 221.355 143.214 220.215 143.103C219.32 143.014 218.869 142.697 218.753 142.886C218.647 143.121 218.633 143.387 218.714 143.631C218.796 143.876 218.966 144.08 219.192 144.204C219.683 144.49 220.205 144.718 220.749 144.882C219.774 145.178 218.759 145.315 217.741 145.288C215.406 145.238 214.566 146.25 216.379 148.624C217.491 150.103 219.331 150.57 223.44 149.153C224.618 148.741 226.22 147.946 227.715 147.407C230.796 146.295 231.607 146.161 233.954 145.366C237.373 144.21 239.753 143.064 240.476 141.697Z" fill="#FFA8A7"/>
<path d="M240.748 119.573C242.166 119.768 243.528 120.085 244.368 121.241C245.207 122.398 245.88 124.021 245.057 128.442C244.427 131.55 243.583 134.612 242.533 137.604C242.533 137.604 239.23 139.017 235.722 135.436L238.135 126.106C238.135 126.106 238.524 120.04 240.748 119.573Z" fill="#455A64"/>
</svg>
